<svg width="747" height="297" viewBox="0 0 747 297" fill="none" xmlns="http://www.w3.org/2000/svg">
<g filter="url(#filter0_d_51_99)">
<path d="M53.8125 103V194H35.125V103H53.8125ZM81.8125 103V117.688H7.5625V103H81.8125ZM110.562 164.5L147.125 103H165.875V194H147.125V132.5L110.562 194H91.8125V103H110.562V164.5ZM190.688 103H206.562L229.938 169.812L253.312 103H269.188L236.312 194H223.562L190.688 103ZM182.125 103H197.938L200.812 168.125V194H182.125V103ZM261.938 103H277.812V194H259.062V168.125L261.938 103ZM353.75 103V117.688H312.812V194H294.125V103H353.75ZM306.375 136.188H327.625C334.792 136.188 340.958 137.375 346.125 139.75C351.292 142.125 355.271 145.458 358.062 149.75C360.854 154.042 362.25 159.042 362.25 164.75C362.25 169.083 361.458 173.042 359.875 176.625C358.292 180.167 355.979 183.25 352.938 185.875C349.938 188.458 346.312 190.458 342.062 191.875C337.812 193.292 333 194 327.625 194H294.125V103H312.938V179.375H327.625C331.208 179.375 334.167 178.708 336.5 177.375C338.833 176.042 340.583 174.271 341.75 172.062C342.958 169.812 343.562 167.333 343.562 164.625C343.562 162.042 342.958 159.708 341.75 157.625C340.583 155.5 338.833 153.833 336.5 152.625C334.167 151.417 331.208 150.812 327.625 150.812H306.375V136.188ZM435.562 179.375V194H387.125V179.375H435.562ZM393.25 103V194H374.5V103H393.25ZM429.25 140.062V154.312H387.125V140.062H429.25ZM435.5 103V117.688H387.125V103H435.5ZM481.938 161.562H458.75V146.938H481.938C485.521 146.938 488.438 146.354 490.688 145.188C492.938 143.979 494.583 142.312 495.625 140.188C496.667 138.062 497.188 135.667 497.188 133C497.188 130.292 496.667 127.771 495.625 125.438C494.583 123.104 492.938 121.229 490.688 119.812C488.438 118.396 485.521 117.688 481.938 117.688H465.25V194H446.5V103H481.938C489.062 103 495.167 104.292 500.25 106.875C505.375 109.417 509.292 112.938 512 117.438C514.708 121.938 516.062 127.083 516.062 132.875C516.062 138.75 514.708 143.833 512 148.125C509.292 152.417 505.375 155.729 500.25 158.062C495.167 160.396 489.062 161.562 481.938 161.562Z" fill="white"/>
<path d="M198.5 224.455V271H191.5V230.455H169.591V271H162.591V224.455H198.5ZM209.239 271V224.455H225.83C229.451 224.455 232.451 225.114 234.83 226.432C237.208 227.75 238.989 229.553 240.17 231.841C241.352 234.114 241.943 236.674 241.943 239.523C241.943 242.386 241.345 244.962 240.148 247.25C238.966 249.523 237.178 251.326 234.784 252.659C232.405 253.977 229.413 254.636 225.807 254.636H214.398V248.682H225.17C227.458 248.682 229.314 248.288 230.739 247.5C232.163 246.697 233.208 245.606 233.875 244.227C234.542 242.848 234.875 241.28 234.875 239.523C234.875 237.765 234.542 236.205 233.875 234.841C233.208 233.477 232.155 232.409 230.716 231.636C229.292 230.864 227.413 230.477 225.08 230.477H216.261V271H209.239ZM290.608 247.727C290.608 252.697 289.699 256.97 287.881 260.545C286.063 264.106 283.57 266.848 280.403 268.773C277.252 270.682 273.669 271.636 269.653 271.636C265.623 271.636 262.025 270.682 258.858 268.773C255.706 266.848 253.222 264.098 251.403 260.523C249.585 256.947 248.676 252.682 248.676 247.727C248.676 242.758 249.585 238.492 251.403 234.932C253.222 231.356 255.706 228.614 258.858 226.705C262.025 224.78 265.623 223.818 269.653 223.818C273.669 223.818 277.252 224.78 280.403 226.705C283.57 228.614 286.063 231.356 287.881 234.932C289.699 238.492 290.608 242.758 290.608 247.727ZM283.653 247.727C283.653 243.939 283.04 240.75 281.812 238.159C280.6 235.553 278.934 233.583 276.812 232.25C274.706 230.902 272.32 230.227 269.653 230.227C266.972 230.227 264.578 230.902 262.472 232.25C260.366 233.583 258.699 235.553 257.472 238.159C256.259 240.75 255.653 243.939 255.653 247.727C255.653 251.515 256.259 254.712 257.472 257.318C258.699 259.909 260.366 261.879 262.472 263.227C264.578 264.561 266.972 265.227 269.653 265.227C272.32 265.227 274.706 264.561 276.812 263.227C278.934 261.879 280.6 259.909 281.812 257.318C283.04 254.712 283.653 251.515 283.653 247.727ZM295.841 282.25V265.045H298.909C299.955 264.167 300.932 262.917 301.841 261.295C302.75 259.674 303.523 257.485 304.159 254.727C304.795 251.97 305.235 248.432 305.477 244.114L306.568 224.455H335.273V265.045H340.545V282.182H333.818V271H302.568V282.25H295.841ZM307.182 265.045H328.545V230.5H312.932L312.205 244.114C312.008 247.402 311.682 250.356 311.227 252.977C310.788 255.598 310.22 257.917 309.523 259.932C308.841 261.932 308.061 263.636 307.182 265.045ZM351.534 271.636V265.455H354.33C355.496 265.455 356.458 265.258 357.216 264.864C357.989 264.47 358.617 263.939 359.102 263.273C359.602 262.591 360.019 261.848 360.352 261.045L361.011 259.386L344.648 224.455H352.102L364.307 251.364L375.17 224.455H382.534L366.443 262.932C365.761 264.477 364.973 265.909 364.08 267.227C363.201 268.545 362.027 269.614 360.557 270.432C359.087 271.235 357.14 271.636 354.716 271.636H351.534ZM416.79 271L401.153 250.136H396.199V271H389.176V224.455H396.199V244.114H398.494L416.085 224.455H424.653L406.04 245.295L425.358 271H416.79ZM429.568 230.5V224.455H465.591V230.5H451.068V271H444.068V230.5H429.568Z" fill="white"/>
<path d="M624.286 104.39H590.984L646.127 0L662.936 31.5528L624.286 104.39Z" fill="white"/>
<path d="M629.889 187.547H596.586L670.898 47.1816L687.706 78.7344L629.889 187.547Z" fill="white"/>
<path d="M634.902 271H601.6L695.078 93.1838L711.887 124.737L634.902 271Z" fill="white"/>
<circle cx="711.887" cy="220.575" r="27.1295" fill="white"/>
</g>
<defs>
<filter id="filter0_d_51_99" x="0.5625" y="0" width="745.454" height="296.25" filterUnits="userSpaceOnUse" color-interpolation-filters="sRGB">
<feFlood flood-opacity="0" result="BackgroundImageFix"/>
<feColorMatrix in="SourceAlpha" type="matrix" values="0 0 0 0 0 0 0 0 0 0 0 0 0 0 0 0 0 0 127 0" result="hardAlpha"/>
<feOffset dy="7"/>
<feGaussianBlur stdDeviation="3.5"/>
<feComposite in2="hardAlpha" operator="out"/>
<feColorMatrix type="matrix" values="0 0 0 0 0 0 0 0 0 0 0 0 0 0 0 0 0 0 0.5 0"/>
<feBlend mode="normal" in2="BackgroundImageFix" result="effect1_dropShadow_51_99"/>
<feBlend mode="normal" in="SourceGraphic" in2="effect1_dropShadow_51_99" result="shape"/>
</filter>
</defs>
</svg>
