<svg width="357" height="142" viewBox="0 0 357 142" fill="none" xmlns="http://www.w3.org/2000/svg">
<g filter="url(#filter0_d_103_22)">
<path d="M26.2752 49.4086V92.8H17.3645V49.4086H26.2752ZM39.6264 49.4086V56.4121H4.22187V49.4086H39.6264ZM53.3352 78.7336L70.7693 49.4086H79.7098V92.8H70.7693V63.4751L53.3352 92.8H44.3947V49.4086H53.3352V78.7336ZM91.5411 49.4086H99.1108L110.257 81.2668L121.403 49.4086H128.972L113.296 92.8H107.217L91.5411 49.4086ZM87.4583 49.4086H94.9981L96.369 80.4621V92.8H87.4583V49.4086ZM125.515 49.4086H133.085V92.8H124.144V80.4621L125.515 49.4086ZM169.294 49.4086V56.4121H149.774V92.8H140.863V49.4086H169.294ZM146.704 65.2334H156.837C160.254 65.2334 163.195 65.7996 165.658 66.9321C168.122 68.0646 170.019 69.654 171.35 71.7004C172.681 73.7468 173.347 76.1309 173.347 78.8528C173.347 80.9191 172.97 82.8065 172.215 84.5152C171.46 86.2039 170.357 87.6741 168.907 88.9258C167.476 90.1576 165.748 91.1113 163.721 91.7868C161.695 92.4623 159.4 92.8 156.837 92.8H140.863V49.4086H149.833V85.8264H156.837C158.545 85.8264 159.956 85.5085 161.069 84.8728C162.181 84.237 163.016 83.3926 163.572 82.3396C164.148 81.2668 164.436 80.0846 164.436 78.7932C164.436 77.5614 164.148 76.4488 163.572 75.4554C163.016 74.4421 162.181 73.6474 161.069 73.0713C159.956 72.4951 158.545 72.207 156.837 72.207H146.704V65.2334ZM208.305 85.8264V92.8H185.208V85.8264H208.305ZM188.129 49.4086V92.8H179.188V49.4086H188.129ZM205.295 67.0811V73.8759H185.208V67.0811H205.295ZM208.275 49.4086V56.4121H185.208V49.4086H208.275ZM230.417 77.3329H219.361V70.3593H230.417C232.126 70.3593 233.517 70.0811 234.59 69.5248C235.663 68.9487 236.447 68.154 236.944 67.1407C237.441 66.1274 237.689 64.985 237.689 63.7135C237.689 62.4221 237.441 61.2201 236.944 60.1075C236.447 58.9949 235.663 58.1008 234.59 57.4253C233.517 56.7498 232.126 56.4121 230.417 56.4121H222.46V92.8H213.52V49.4086H230.417C233.815 49.4086 236.726 50.0245 239.149 51.2564C241.593 52.4683 243.461 54.1471 244.752 56.2929C246.044 58.4386 246.689 60.8923 246.689 63.6539C246.689 66.4553 246.044 68.8791 244.752 70.9255C243.461 72.9719 241.593 74.5514 239.149 75.664C236.726 76.7766 233.815 77.3329 230.417 77.3329Z" fill="white"/>
<path d="M95.2659 107.501V129.695H91.9281V110.362H81.4812V129.695H78.1434V107.501H95.2659ZM100.386 129.695V107.501H108.297C110.024 107.501 111.455 107.815 112.589 108.443C113.723 109.072 114.572 109.932 115.136 111.023C115.699 112.106 115.981 113.327 115.981 114.686C115.981 116.051 115.696 117.279 115.125 118.37C114.561 119.454 113.709 120.314 112.567 120.949C111.433 121.578 110.006 121.892 108.287 121.892H102.846V119.053H107.983C109.074 119.053 109.959 118.865 110.638 118.489C111.317 118.106 111.816 117.586 112.134 116.929C112.452 116.271 112.611 115.524 112.611 114.686C112.611 113.847 112.452 113.103 112.134 112.453C111.816 111.803 111.314 111.294 110.627 110.925C109.948 110.557 109.052 110.372 107.94 110.372H103.735V129.695H100.386ZM139.186 118.598C139.186 120.967 138.752 123.005 137.885 124.71C137.018 126.408 135.83 127.715 134.32 128.633C132.817 129.543 131.108 129.998 129.194 129.998C127.272 129.998 125.556 129.543 124.046 128.633C122.544 127.715 121.359 126.404 120.492 124.699C119.625 122.994 119.191 120.96 119.191 118.598C119.191 116.228 119.625 114.194 120.492 112.496C121.359 110.791 122.544 109.484 124.046 108.573C125.556 107.656 127.272 107.197 129.194 107.197C131.108 107.197 132.817 107.656 134.32 108.573C135.83 109.484 137.018 110.791 137.885 112.496C138.752 114.194 139.186 116.228 139.186 118.598ZM135.87 118.598C135.87 116.792 135.577 115.271 134.992 114.035C134.414 112.793 133.619 111.853 132.608 111.218C131.603 110.575 130.465 110.253 129.194 110.253C127.915 110.253 126.774 110.575 125.769 111.218C124.765 111.853 123.97 112.793 123.385 114.035C122.807 115.271 122.518 116.792 122.518 118.598C122.518 120.404 122.807 121.928 123.385 123.171C123.97 124.406 124.765 125.346 125.769 125.989C126.774 126.624 127.915 126.942 129.194 126.942C130.465 126.942 131.603 126.624 132.608 125.989C133.619 125.346 134.414 124.406 134.992 123.171C135.577 121.928 135.87 120.404 135.87 118.598ZM141.681 135.059V126.856H143.144C143.642 126.436 144.108 125.84 144.542 125.067C144.975 124.294 145.344 123.25 145.647 121.936C145.951 120.621 146.16 118.934 146.276 116.875L146.796 107.501H160.483V126.856H162.997V135.027H159.79V129.695H144.889V135.059H141.681ZM147.089 126.856H157.275V110.383H149.83L149.484 116.875C149.39 118.442 149.234 119.851 149.018 121.101C148.808 122.351 148.537 123.456 148.205 124.417C147.88 125.371 147.508 126.184 147.089 126.856ZM168.237 129.998V127.051H169.57C170.126 127.051 170.585 126.957 170.946 126.769C171.315 126.581 171.615 126.328 171.846 126.01C172.084 125.685 172.283 125.331 172.442 124.948L172.756 124.157L164.953 107.501H168.508L174.327 120.332L179.507 107.501H183.019L175.346 125.848C175.021 126.585 174.645 127.267 174.219 127.896C173.8 128.524 173.24 129.034 172.539 129.424C171.838 129.807 170.91 129.998 169.754 129.998H168.237ZM199.353 129.695L191.897 119.746H189.534V129.695H186.186V107.501H189.534V116.875H190.629L199.017 107.501H203.102L194.227 117.438L203.438 129.695H199.353ZM205.446 110.383V107.501H222.623V110.383H215.698V129.695H212.36V110.383H205.446Z" fill="white"/>
<path d="M298.294 49.8138H282.414L308.708 0.0378418L316.723 15.0831L298.294 49.8138Z" fill="white"/>
<path d="M300.965 89.4658H285.085L320.519 22.5354L328.533 37.5807L300.965 89.4658Z" fill="white"/>
<path d="M303.356 129.259H287.477L332.05 44.4707L340.065 59.516L303.356 129.259Z" fill="white"/>
<circle cx="340.064" cy="105.214" r="12.9361" fill="white"/>
</g>
<defs>
<filter id="filter0_d_103_22" x="0.883879" y="0.0378418" width="355.454" height="141.697" filterUnits="userSpaceOnUse" color-interpolation-filters="sRGB">
<feFlood flood-opacity="0" result="BackgroundImageFix"/>
<feColorMatrix in="SourceAlpha" type="matrix" values="0 0 0 0 0 0 0 0 0 0 0 0 0 0 0 0 0 0 127 0" result="hardAlpha"/>
<feOffset dy="3.3378"/>
<feGaussianBlur stdDeviation="1.6689"/>
<feComposite in2="hardAlpha" operator="out"/>
<feColorMatrix type="matrix" values="0 0 0 0 0 0 0 0 0 0 0 0 0 0 0 0 0 0 0.5 0"/>
<feBlend mode="normal" in2="BackgroundImageFix" result="effect1_dropShadow_103_22"/>
<feBlend mode="normal" in="SourceGraphic" in2="effect1_dropShadow_103_22" result="shape"/>
</filter>
</defs>
</svg>
