<svg width="535" height="212" viewBox="0 0 535 212" fill="none" xmlns="http://www.w3.org/2000/svg">
<g filter="url(#filter0_d_51_159)">
<path d="M38.9128 73.5562V138.643H25.5467V73.5562H38.9128ZM58.9396 73.5562V84.0613H5.83281V73.5562H58.9396ZM79.5028 117.544L105.654 73.5562H119.065V138.643H105.654V94.6559L79.5028 138.643H66.092V73.5562H79.5028V117.544ZM136.812 73.5562H148.166L164.885 121.343L181.604 73.5562H192.958L169.445 138.643H160.325L136.812 73.5562ZM130.687 73.5562H141.997L144.054 120.136V138.643H130.687V73.5562ZM187.773 73.5562H199.127V138.643H185.716V120.136L187.773 73.5562ZM253.441 73.5562V84.0613H224.161V138.643H210.795V73.5562H253.441ZM219.556 97.2933H234.755C239.881 97.2933 244.292 98.1427 247.987 99.8414C251.683 101.54 254.529 103.924 256.525 106.994C258.522 110.063 259.521 113.64 259.521 117.722C259.521 120.822 258.954 123.653 257.822 126.216C256.689 128.749 255.035 130.954 252.86 132.832C250.714 134.68 248.121 136.11 245.082 137.123C242.042 138.137 238.6 138.643 234.755 138.643H210.795V73.5562H224.25V128.183H234.755C237.318 128.183 239.434 127.706 241.103 126.752C242.772 125.799 244.024 124.532 244.858 122.953C245.722 121.343 246.154 119.57 246.154 117.633C246.154 115.785 245.722 114.116 244.858 112.626C244.024 111.106 242.772 109.914 241.103 109.05C239.434 108.186 237.318 107.754 234.755 107.754H219.556V97.2933ZM311.957 128.183V138.643H277.312V128.183H311.957ZM281.693 73.5562V138.643H268.282V73.5562H281.693ZM307.442 100.065V110.257H277.312V100.065H307.442ZM311.912 73.5562V84.0613H277.312V73.5562H311.912ZM345.126 115.443H328.541V104.982H345.126C347.689 104.982 349.775 104.565 351.385 103.731C352.994 102.866 354.171 101.674 354.916 100.154C355.661 98.6344 356.034 96.9208 356.034 95.0135C356.034 93.0764 355.661 91.2734 354.916 89.6045C354.171 87.9356 352.994 86.5945 351.385 85.5812C349.775 84.568 347.689 84.0613 345.126 84.0613H333.191V138.643H319.78V73.5562H345.126C350.222 73.5562 354.588 74.4801 358.224 76.3278C361.89 78.1457 364.691 80.6639 366.628 83.8825C368.565 87.1011 369.534 90.7816 369.534 94.9241C369.534 99.1261 368.565 102.762 366.628 105.832C364.691 108.901 361.89 111.27 358.224 112.939C354.588 114.608 350.222 115.443 345.126 115.443Z" fill="white"/>
<path d="M142.399 160.195V193.486H137.393V164.486H121.722V193.486H116.716V160.195H142.399ZM150.08 193.486V160.195H161.947C164.537 160.195 166.682 160.666 168.384 161.609C170.085 162.552 171.359 163.841 172.204 165.478C173.049 167.103 173.472 168.935 173.472 170.972C173.472 173.02 173.044 174.862 172.188 176.499C171.342 178.124 170.064 179.414 168.351 180.368C166.65 181.31 164.51 181.782 161.93 181.782H153.77V177.523H161.475C163.112 177.523 164.439 177.241 165.458 176.678C166.477 176.103 167.224 175.323 167.701 174.337C168.178 173.351 168.416 172.229 168.416 170.972C168.416 169.715 168.178 168.599 167.701 167.623C167.224 166.648 166.471 165.884 165.442 165.331C164.423 164.779 163.079 164.502 161.41 164.502H155.103V193.486H150.08ZM208.279 176.84C208.279 180.395 207.629 183.451 206.328 186.008C205.028 188.555 203.245 190.516 200.98 191.893C198.726 193.258 196.163 193.941 193.291 193.941C190.409 193.941 187.835 193.258 185.57 191.893C183.316 190.516 181.539 188.55 180.238 185.992C178.938 183.435 178.288 180.384 178.288 176.84C178.288 173.286 178.938 170.235 180.238 167.688C181.539 165.131 183.316 163.169 185.57 161.804C187.835 160.428 190.409 159.739 193.291 159.739C196.163 159.739 198.726 160.428 200.98 161.804C203.245 163.169 205.028 165.131 206.328 167.688C207.629 170.235 208.279 173.286 208.279 176.84ZM203.305 176.84C203.305 174.131 202.866 171.85 201.988 169.997C201.121 168.133 199.929 166.724 198.412 165.77C196.906 164.806 195.199 164.323 193.291 164.323C191.373 164.323 189.661 164.806 188.155 165.77C186.648 166.724 185.456 168.133 184.578 169.997C183.711 171.85 183.278 174.131 183.278 176.84C183.278 179.549 183.711 181.836 184.578 183.7C185.456 185.553 186.648 186.962 188.155 187.926C189.661 188.88 191.373 189.357 193.291 189.357C195.199 189.357 196.906 188.88 198.412 187.926C199.929 186.962 201.121 185.553 201.988 183.7C202.866 181.836 203.305 179.549 203.305 176.84ZM212.022 201.532V189.227H214.216C214.964 188.598 215.663 187.704 216.313 186.545C216.963 185.385 217.516 183.819 217.971 181.847C218.426 179.875 218.741 177.344 218.914 174.256L219.694 160.195H240.225V189.227H243.996V201.484H239.185V193.486H216.833V201.532H212.022ZM220.133 189.227H235.413V164.518H224.246L223.726 174.256C223.585 176.607 223.352 178.72 223.027 180.595C222.712 182.47 222.306 184.128 221.808 185.569C221.32 187 220.762 188.219 220.133 189.227ZM251.856 193.941V189.519H253.855C254.69 189.519 255.378 189.379 255.92 189.097C256.473 188.815 256.922 188.436 257.269 187.959C257.627 187.471 257.925 186.94 258.163 186.366L258.634 185.179L246.931 160.195H252.262L260.992 179.441L268.762 160.195H274.028L262.52 187.715C262.032 188.821 261.468 189.845 260.829 190.787C260.2 191.73 259.361 192.494 258.309 193.079C257.258 193.654 255.866 193.941 254.132 193.941H251.856ZM298.53 193.486L287.346 178.563H283.802V193.486H278.779V160.195H283.802V174.256H285.444L298.026 160.195H304.154L290.841 175.101L304.658 193.486H298.53ZM307.669 164.518V160.195H333.434V164.518H323.047V193.486H318.04V164.518H307.669Z" fill="white"/>
<path d="M446.94 74.6639H423.121L462.562 0L474.584 22.5679L446.94 74.6639Z" fill="white"/>
<path d="M450.947 134.142H427.128L480.278 33.7463L492.301 56.3142L450.947 134.142Z" fill="white"/>
<path d="M454.533 193.831H430.714L497.574 66.6492L509.596 89.2171L454.533 193.831Z" fill="white"/>
<circle cx="509.596" cy="157.765" r="19.4042" fill="white"/>
</g>
<defs>
<filter id="filter0_d_51_159" x="0.826307" y="0" width="533.18" height="211.546" filterUnits="userSpaceOnUse" color-interpolation-filters="sRGB">
<feFlood flood-opacity="0" result="BackgroundImageFix"/>
<feColorMatrix in="SourceAlpha" type="matrix" values="0 0 0 0 0 0 0 0 0 0 0 0 0 0 0 0 0 0 127 0" result="hardAlpha"/>
<feOffset dy="5.0067"/>
<feGaussianBlur stdDeviation="2.50335"/>
<feComposite in2="hardAlpha" operator="out"/>
<feColorMatrix type="matrix" values="0 0 0 0 0 0 0 0 0 0 0 0 0 0 0 0 0 0 0.5 0"/>
<feBlend mode="normal" in2="BackgroundImageFix" result="effect1_dropShadow_51_159"/>
<feBlend mode="normal" in="SourceGraphic" in2="effect1_dropShadow_51_159" result="shape"/>
</filter>
</defs>
</svg>
