<svg width="146" height="57" viewBox="0 0 146 57" fill="none" xmlns="http://www.w3.org/2000/svg">
<path d="M9.70908 20.8178V38.9182H5.99203V20.8178H9.70908ZM15.2784 20.8178V23.7392H0.509696V20.8178H15.2784ZM20.997 33.0505L28.2695 20.8178H31.999V38.9182H28.2695V26.6855L20.997 38.9182H17.2675V20.8178H20.997V33.0505ZM36.9343 20.8178H40.0919L44.7413 34.1072L49.3908 20.8178H52.5484L46.0094 38.9182H43.4733L36.9343 20.8178ZM35.2312 20.8178H38.3764L38.9482 33.7715V38.9182H35.2312V20.8178ZM51.1063 20.8178H54.264V38.9182H50.5345V33.7715L51.1063 20.8178ZM69.3684 20.8178V23.7392H61.2257V38.9182H57.5086V20.8178H69.3684ZM59.9452 27.419H64.1719C65.5974 27.419 66.824 27.6552 67.8517 28.1276C68.8794 28.6 69.6709 29.263 70.2261 30.1166C70.7814 30.9703 71.0591 31.9648 71.0591 33.1002C71.0591 33.9621 70.9016 34.7495 70.5867 35.4622C70.2717 36.1667 69.8117 36.78 69.2067 37.3021C68.61 37.8159 67.889 38.2138 67.0436 38.4955C66.1983 38.7773 65.2411 38.9182 64.1719 38.9182H57.5086V20.8178H61.2505V36.0092H64.1719C64.8847 36.0092 65.4731 35.8766 65.9372 35.6114C66.4013 35.3462 66.7494 34.994 66.9815 34.5547C67.2218 34.1072 67.342 33.6141 67.342 33.0754C67.342 32.5615 67.2218 32.0974 66.9815 31.683C66.7494 31.2603 66.4013 30.9288 65.9372 30.6885C65.4731 30.4481 64.8847 30.328 64.1719 30.328H59.9452V27.419ZM85.6413 36.0092V38.9182H76.0068V36.0092H85.6413ZM77.2251 20.8178V38.9182H73.4956V20.8178H77.2251ZM84.3857 28.1897V31.0241H76.0068V28.1897H84.3857ZM85.6289 20.8178V23.7392H76.0068V20.8178H85.6289ZM94.8656 32.4662H90.2534V29.5572H94.8656C95.5783 29.5572 96.1585 29.4412 96.606 29.2091C97.0535 28.9688 97.3809 28.6373 97.5881 28.2146C97.7953 27.7919 97.8989 27.3154 97.8989 26.785C97.8989 26.2463 97.7953 25.7449 97.5881 25.2807C97.3809 24.8166 97.0535 24.4437 96.606 24.1619C96.1585 23.8801 95.5783 23.7392 94.8656 23.7392H91.5463V38.9182H87.8169V20.8178H94.8656C96.2828 20.8178 97.4969 21.0747 98.508 21.5886C99.5274 22.0941 100.306 22.7944 100.845 23.6895C101.384 24.5846 101.653 25.6081 101.653 26.7601C101.653 27.9287 101.384 28.9398 100.845 29.7934C100.306 30.6471 99.5274 31.3059 98.508 31.77C97.4969 32.2342 96.2828 32.4662 94.8656 32.4662Z" fill="#475A5E"/>
<path d="M38.4883 44.3134V53.5715H37.0959V45.5068H32.7381V53.5715H31.3458V44.3134H38.4883ZM40.6243 53.5715V44.3134H43.9243C44.6446 44.3134 45.2413 44.4445 45.7144 44.7067C46.1876 44.9689 46.5417 45.3275 46.7768 45.7826C47.0119 46.2346 47.1294 46.7439 47.1294 47.3105C47.1294 47.8801 47.0103 48.3925 46.7723 48.8475C46.5372 49.2996 46.1816 49.6582 45.7054 49.9234C45.2322 50.1856 44.637 50.3167 43.9198 50.3167H41.6504V49.1323H43.7932C44.2483 49.1323 44.6174 49.054 44.9007 48.8972C45.184 48.7375 45.392 48.5205 45.5246 48.2463C45.6572 47.972 45.7235 47.6601 45.7235 47.3105C45.7235 46.9609 45.6572 46.6505 45.5246 46.3793C45.392 46.108 45.1825 45.8956 44.8962 45.7419C44.6129 45.5882 44.2392 45.5113 43.7751 45.5113H42.0211V53.5715H40.6243ZM56.8091 48.9425C56.8091 49.931 56.6283 50.7808 56.2666 51.4921C55.905 52.2003 55.4092 52.7458 54.7793 53.1285C54.1525 53.5082 53.4397 53.6981 52.6411 53.6981C51.8395 53.6981 51.1237 53.5082 50.4938 53.1285C49.867 52.7458 49.3727 52.1988 49.0111 51.4875C48.6494 50.7763 48.4686 49.9279 48.4686 48.9425C48.4686 47.954 48.6494 47.1056 49.0111 46.3974C49.3727 45.6861 49.867 45.1406 50.4938 44.7609C51.1237 44.3782 51.8395 44.1868 52.6411 44.1868C53.4397 44.1868 54.1525 44.3782 54.7793 44.7609C55.4092 45.1406 55.905 45.6861 56.2666 46.3974C56.6283 47.1056 56.8091 47.954 56.8091 48.9425ZM55.4258 48.9425C55.4258 48.189 55.3037 47.5546 55.0596 47.0393C54.8185 46.5209 54.487 46.1291 54.0651 45.8639C53.6462 45.5957 53.1715 45.4616 52.6411 45.4616C52.1077 45.4616 51.6315 45.5957 51.2126 45.8639C50.7937 46.1291 50.4622 46.5209 50.2181 47.0393C49.977 47.5546 49.8564 48.189 49.8564 48.9425C49.8564 49.6959 49.977 50.3318 50.2181 50.8501C50.4622 51.3655 50.7937 51.7573 51.2126 52.0255C51.6315 52.2907 52.1077 52.4233 52.6411 52.4233C53.1715 52.4233 53.6462 52.2907 54.0651 52.0255C54.487 51.7573 54.8185 51.3655 55.0596 50.8501C55.3037 50.3318 55.4258 49.6959 55.4258 48.9425ZM57.8499 55.8092V52.3871H58.4602C58.6682 52.2123 58.8626 51.9637 59.0434 51.6412C59.2242 51.3188 59.3779 50.8833 59.5045 50.3348C59.6311 49.7863 59.7185 49.0826 59.7667 48.2237L59.9837 44.3134H65.6932V52.3871H66.7419V55.7957H65.4038V53.5715H59.188V55.8092H57.8499ZM60.1057 52.3871H64.3551V45.5159H61.2494L61.1048 48.2237C61.0656 48.8777 61.0008 49.4653 60.9104 49.9867C60.823 50.5081 60.71 50.9692 60.5713 51.37C60.4357 51.7678 60.2805 52.1069 60.1057 52.3871ZM68.9276 53.6981V52.4685H69.4837C69.7157 52.4685 69.9071 52.4293 70.0578 52.351C70.2115 52.2726 70.3366 52.1671 70.433 52.0345C70.5324 51.8989 70.6153 51.7512 70.6816 51.5915L70.8127 51.2615L67.5579 44.3134H69.0407L71.4682 49.6657L73.629 44.3134H75.0937L71.8931 51.9667C71.7575 52.2741 71.6008 52.5589 71.423 52.8211C71.2482 53.0833 71.0146 53.2958 70.7223 53.4585C70.43 53.6182 70.0427 53.6981 69.5605 53.6981H68.9276ZM81.9074 53.5715L78.7972 49.4216H77.8117V53.5715H76.4149V44.3134H77.8117V48.2237H78.2683L81.7672 44.3134H83.4715L79.7691 48.4588L83.6116 53.5715H81.9074ZM84.4491 45.5159V44.3134H91.6142V45.5159H88.7255V53.5715H87.3332V45.5159H84.4491Z" fill="#475A5E"/>
<path d="M123.18 20.7637H116.555L127.524 0L130.867 6.27603L123.18 20.7637Z" fill="#475A5E"/>
<path d="M124.294 37.3043H117.67L132.451 9.38477L135.794 15.6608L124.294 37.3043Z" fill="#475A5E"/>
<path d="M125.291 53.9035H118.667L137.26 18.5349L140.604 24.8109L125.291 53.9035Z" fill="#475A5E"/>
<circle cx="140.604" cy="43.8735" r="5.39621" fill="#475A5E"/>
</svg>
